<svg xmlns="http://www.w3.org/2000/svg" width="36" height="36" viewBox="0 0 36 36">
    <g fill="none" fill-rule="evenodd">
        <path fill="#37BF21" fill-opacity=".6" d="M20.112 17.987c-.365 0-.73.339-.73.756 0 .339.364.678.73.678.547 0 .938-.34.938-.678 0-.417-.39-.756-.938-.756zm-2.399-3.52c.574 0 .939-.364.939-.912 0-.573-.365-.912-.939-.912-.547 0-1.069.339-1.069.912 0 .548.522.913 1.07.913zM18 2C9.163 2 2 9.163 2 18s7.163 16 16 16 16-7.163 16-16S26.837 2 18 2zm-3.024 20.054c-.965 0-1.668-.157-2.58-.417l-2.634 1.33.756-2.243c-1.85-1.303-2.945-2.946-2.945-4.953 0-3.545 3.336-6.256 7.403-6.256 3.598 0 6.804 2.137 7.43 5.161a3.612 3.612 0 0 0-.704-.078c-3.546 0-6.283 2.66-6.283 5.866 0 .547.079 1.042.209 1.564-.209.026-.443.026-.652.026zm10.87 2.554l.522 1.877-1.981-1.12c-.756.156-1.486.39-2.242.39-3.493 0-6.256-2.398-6.256-5.37 0-2.971 2.763-5.37 6.256-5.37 3.31 0 6.282 2.399 6.282 5.37 0 1.669-1.12 3.155-2.58 4.223zM12.553 12.643c-.548 0-1.121.339-1.121.912 0 .548.573.913 1.12.913.522 0 .94-.365.94-.913 0-.573-.418-.912-.94-.912zm11.652 5.344c-.39 0-.73.339-.73.756 0 .339.34.678.73.678.522 0 .913-.34.913-.678 0-.417-.391-.756-.913-.756z"/>
        <path d="M0 0h36v36H0z"/>
    </g>
</svg>
